<svg width="29" height="29" viewBox="0 0 29 29" fill="none" xmlns="http://www.w3.org/2000/svg">
<path d="M3 1V28H7V12.4113V8.36364L16 22.4773L22 11.8917L24 8.36364V28H28V1H24L16 15.1136L14.5 12.9309L7 1H3Z" fill="black"/>
<path d="M1 1V28M7 12.4113V28H3V1H7L14.5 12.9309M7 12.4113V8.36364L16 22.4773L22 11.8917M7 12.4113L14 23.843M14.5 12.9309L16 15.1136L24 1H28V28H24V8.36364L22 11.8917M14.5 12.9309L21.5 1M22 11.8917V28" stroke="black" stroke-width="1.1" stroke-linecap="round" stroke-linejoin="round"/>
</svg>
