<svg width="48" height="41" viewBox="0 0 48 41" fill="none" xmlns="http://www.w3.org/2000/svg">
<path d="M12 1V28H16V12.4113V8.36364L25 22.4773L31 11.8917L33 8.36364V28H37V1H33L25 15.1136L23.5 12.9309L16 1H12Z" fill="black"/>
<path d="M10 1V28M16 12.4113V28H12V1H16L23.5 12.9309M16 12.4113V8.36364L25 22.4773L31 11.8917M16 12.4113L23 23.843M23.5 12.9309L25 15.1136L33 1H37V28H33V8.36364L31 11.8917M23.5 12.9309L30.5 1M31 11.8917V28" stroke="black" stroke-width="1.1" stroke-linecap="round" stroke-linejoin="round"/>
<path d="M10.4033 31.324V40H8.9813V34.396C8.9813 34.172 8.9933 33.93 9.0173 33.67L6.3953 38.596C6.2713 38.832 6.0813 38.95 5.8253 38.95H5.5973C5.3413 38.95 5.1513 38.832 5.0273 38.596L2.3753 33.652C2.3873 33.784 2.3973 33.914 2.4053 34.042C2.4133 34.17 2.4173 34.288 2.4173 34.396V40H0.995297V31.324H2.2133C2.2853 31.324 2.3473 31.326 2.3993 31.33C2.4513 31.334 2.4973 31.344 2.5373 31.36C2.5813 31.376 2.6193 31.402 2.6513 31.438C2.6873 31.474 2.7213 31.522 2.7533 31.582L5.3513 36.4C5.4193 36.528 5.4813 36.66 5.5373 36.796C5.5973 36.932 5.6553 37.072 5.7113 37.216C5.7673 37.068 5.8253 36.926 5.8853 36.79C5.9453 36.65 6.0093 36.516 6.0773 36.388L8.6393 31.582C8.6713 31.522 8.7053 31.474 8.7413 31.438C8.7773 31.402 8.8153 31.376 8.8553 31.36C8.8993 31.344 8.9473 31.334 8.9993 31.33C9.0513 31.326 9.1133 31.324 9.1853 31.324H10.4033ZM14.6415 33.748C15.0975 33.748 15.5115 33.822 15.8835 33.97C16.2595 34.118 16.5795 34.328 16.8435 34.6C17.1115 34.872 17.3175 35.204 17.4615 35.596C17.6055 35.988 17.6775 36.426 17.6775 36.91C17.6775 37.398 17.6055 37.838 17.4615 38.23C17.3175 38.622 17.1115 38.956 16.8435 39.232C16.5795 39.508 16.2595 39.72 15.8835 39.868C15.5115 40.016 15.0975 40.09 14.6415 40.09C14.1815 40.09 13.7635 40.016 13.3875 39.868C13.0115 39.72 12.6895 39.508 12.4215 39.232C12.1575 38.956 11.9515 38.622 11.8035 38.23C11.6595 37.838 11.5875 37.398 11.5875 36.91C11.5875 36.426 11.6595 35.988 11.8035 35.596C11.9515 35.204 12.1575 34.872 12.4215 34.6C12.6895 34.328 13.0115 34.118 13.3875 33.97C13.7635 33.822 14.1815 33.748 14.6415 33.748ZM14.6415 38.95C15.1535 38.95 15.5315 38.778 15.7755 38.434C16.0235 38.09 16.1475 37.586 16.1475 36.922C16.1475 36.258 16.0235 35.752 15.7755 35.404C15.5315 35.056 15.1535 34.882 14.6415 34.882C14.1215 34.882 13.7355 35.058 13.4835 35.41C13.2355 35.758 13.1115 36.262 13.1115 36.922C13.1115 37.582 13.2355 38.086 13.4835 38.434C13.7355 38.778 14.1215 38.95 14.6415 38.95ZM20.2062 34.912C20.3982 34.544 20.6262 34.256 20.8902 34.048C21.1542 33.836 21.4662 33.73 21.8262 33.73C22.1102 33.73 22.3382 33.792 22.5102 33.916L22.4142 35.026C22.3942 35.098 22.3642 35.15 22.3242 35.182C22.2882 35.21 22.2382 35.224 22.1742 35.224C22.1142 35.224 22.0242 35.214 21.9042 35.194C21.7882 35.174 21.6742 35.164 21.5622 35.164C21.3982 35.164 21.2522 35.188 21.1242 35.236C20.9962 35.284 20.8802 35.354 20.7762 35.446C20.6762 35.534 20.5862 35.642 20.5062 35.77C20.4302 35.898 20.3582 36.044 20.2902 36.208V40H18.8082V33.844H19.6782C19.8302 33.844 19.9362 33.872 19.9962 33.928C20.0562 33.98 20.0962 34.076 20.1162 34.216L20.2062 34.912ZM24.7667 38.404C24.9347 38.608 25.1167 38.752 25.3127 38.836C25.5127 38.92 25.7227 38.962 25.9427 38.962C26.1707 38.962 26.3747 38.922 26.5547 38.842C26.7387 38.758 26.8947 38.63 27.0227 38.458C27.1507 38.282 27.2487 38.06 27.3167 37.792C27.3847 37.52 27.4187 37.196 27.4187 36.82C27.4187 36.144 27.3067 35.656 27.0827 35.356C26.8587 35.052 26.5367 34.9 26.1167 34.9C25.8327 34.9 25.5847 34.966 25.3727 35.098C25.1607 35.226 24.9587 35.408 24.7667 35.644V38.404ZM24.7667 34.6C25.0147 34.34 25.2887 34.134 25.5887 33.982C25.8927 33.826 26.2387 33.748 26.6267 33.748C26.9827 33.748 27.3027 33.818 27.5867 33.958C27.8747 34.098 28.1187 34.3 28.3187 34.564C28.5227 34.824 28.6787 35.14 28.7867 35.512C28.8947 35.884 28.9487 36.302 28.9487 36.766C28.9487 37.266 28.8867 37.72 28.7627 38.128C28.6387 38.536 28.4607 38.886 28.2287 39.178C28.0007 39.466 27.7247 39.69 27.4007 39.85C27.0767 40.01 26.7167 40.09 26.3207 40.09C26.1287 40.09 25.9547 40.07 25.7987 40.03C25.6427 39.994 25.4987 39.942 25.3667 39.874C25.2347 39.806 25.1127 39.724 25.0007 39.628C24.8927 39.528 24.7887 39.418 24.6887 39.298L24.6227 39.712C24.5987 39.816 24.5567 39.89 24.4967 39.934C24.4407 39.978 24.3627 40 24.2627 40H23.2847V31.084H24.7667V34.6ZM34.0593 36.214C34.0593 36.022 34.0313 35.842 33.9753 35.674C33.9233 35.502 33.8433 35.352 33.7353 35.224C33.6273 35.096 33.4893 34.996 33.3213 34.924C33.1573 34.848 32.9653 34.81 32.7453 34.81C32.3173 34.81 31.9793 34.932 31.7313 35.176C31.4873 35.42 31.3313 35.766 31.2633 36.214H34.0593ZM31.2333 37.108C31.2573 37.424 31.3133 37.698 31.4013 37.93C31.4893 38.158 31.6053 38.348 31.7493 38.5C31.8933 38.648 32.0633 38.76 32.2593 38.836C32.4593 38.908 32.6793 38.944 32.9193 38.944C33.1593 38.944 33.3653 38.916 33.5373 38.86C33.7133 38.804 33.8653 38.742 33.9933 38.674C34.1253 38.606 34.2393 38.544 34.3353 38.488C34.4353 38.432 34.5313 38.404 34.6233 38.404C34.7473 38.404 34.8393 38.45 34.8993 38.542L35.3253 39.082C35.1613 39.274 34.9773 39.436 34.7733 39.568C34.5693 39.696 34.3553 39.8 34.1313 39.88C33.9113 39.956 33.6853 40.01 33.4533 40.042C33.2253 40.074 33.0033 40.09 32.7873 40.09C32.3593 40.09 31.9613 40.02 31.5933 39.88C31.2253 39.736 30.9053 39.526 30.6333 39.25C30.3613 38.97 30.1473 38.626 29.9913 38.218C29.8353 37.806 29.7573 37.33 29.7573 36.79C29.7573 36.37 29.8253 35.976 29.9613 35.608C30.0973 35.236 30.2913 34.914 30.5433 34.642C30.7993 34.366 31.1093 34.148 31.4733 33.988C31.8413 33.828 32.2553 33.748 32.7153 33.748C33.1033 33.748 33.4613 33.81 33.7893 33.934C34.1173 34.058 34.3993 34.24 34.6353 34.48C34.8713 34.716 35.0553 35.008 35.1873 35.356C35.3233 35.7 35.3913 36.094 35.3913 36.538C35.3913 36.762 35.3673 36.914 35.3193 36.994C35.2713 37.07 35.1793 37.108 35.0433 37.108H31.2333ZM40.9135 35.146C40.8695 35.202 40.8255 35.246 40.7815 35.278C40.7415 35.31 40.6815 35.326 40.6015 35.326C40.5255 35.326 40.4515 35.304 40.3795 35.26C40.3075 35.212 40.2215 35.16 40.1215 35.104C40.0215 35.044 39.9015 34.992 39.7615 34.948C39.6255 34.9 39.4555 34.876 39.2515 34.876C38.9915 34.876 38.7635 34.924 38.5675 35.02C38.3715 35.112 38.2075 35.246 38.0755 35.422C37.9475 35.598 37.8515 35.812 37.7875 36.064C37.7235 36.312 37.6915 36.594 37.6915 36.91C37.6915 37.238 37.7255 37.53 37.7935 37.786C37.8655 38.042 37.9675 38.258 38.0995 38.434C38.2315 38.606 38.3915 38.738 38.5795 38.83C38.7675 38.918 38.9795 38.962 39.2155 38.962C39.4515 38.962 39.6415 38.934 39.7855 38.878C39.9335 38.818 40.0575 38.754 40.1575 38.686C40.2575 38.614 40.3435 38.55 40.4155 38.494C40.4915 38.434 40.5755 38.404 40.6675 38.404C40.7875 38.404 40.8775 38.45 40.9375 38.542L41.3635 39.082C41.1995 39.274 41.0215 39.436 40.8295 39.568C40.6375 39.696 40.4375 39.8 40.2295 39.88C40.0255 39.956 39.8135 40.01 39.5935 40.042C39.3775 40.074 39.1615 40.09 38.9455 40.09C38.5655 40.09 38.2075 40.02 37.8715 39.88C37.5355 39.736 37.2415 39.528 36.9895 39.256C36.7375 38.984 36.5375 38.652 36.3895 38.26C36.2455 37.864 36.1735 37.414 36.1735 36.91C36.1735 36.458 36.2375 36.04 36.3655 35.656C36.4975 35.268 36.6895 34.934 36.9415 34.654C37.1935 34.37 37.5055 34.148 37.8775 33.988C38.2495 33.828 38.6775 33.748 39.1615 33.748C39.6215 33.748 40.0235 33.822 40.3675 33.97C40.7155 34.118 41.0275 34.33 41.3035 34.606L40.9135 35.146ZM43.7745 31.084V36.19H44.0505C44.1505 36.19 44.2285 36.178 44.2845 36.154C44.3445 36.126 44.4045 36.072 44.4645 35.992L45.9945 34.102C46.0585 34.018 46.1285 33.954 46.2045 33.91C46.2845 33.866 46.3865 33.844 46.5105 33.844H47.8665L45.9525 36.13C45.8165 36.31 45.6685 36.448 45.5085 36.544C45.5925 36.604 45.6665 36.674 45.7305 36.754C45.7985 36.834 45.8625 36.92 45.9225 37.012L47.9745 40H46.6365C46.5205 40 46.4205 39.982 46.3365 39.946C46.2525 39.906 46.1825 39.836 46.1265 39.736L44.5545 37.402C44.4985 37.31 44.4405 37.25 44.3805 37.222C44.3205 37.194 44.2305 37.18 44.1105 37.18H43.7745V40H42.2925V31.084H43.7745Z" fill="black"/>
</svg>
